<svg xmlns="http://www.w3.org/2000/svg" width="19.324" height="15.46" viewBox="0 0 19.324 15.46">
  <path id="Icon_awesome-eye-slash" data-name="Icon awesome-eye-slash" d="M9.662,12.077A4.332,4.332,0,0,1,5.347,8.058L2.18,5.611A10.063,10.063,0,0,0,1.071,7.289a.977.977,0,0,0,0,.881,9.684,9.684,0,0,0,8.591,5.356,9.379,9.379,0,0,0,2.352-.316L10.447,12A4.352,4.352,0,0,1,9.662,12.077Zm9.475,1.754L15.8,11.252A10,10,0,0,0,18.253,8.17a.977.977,0,0,0,0-.881A9.684,9.684,0,0,0,9.662,1.932,9.3,9.3,0,0,0,5.214,3.071L1.373.1A.483.483,0,0,0,.695.186L.1.949a.483.483,0,0,0,.085.678l17.765,13.73a.483.483,0,0,0,.678-.085l.593-.763a.483.483,0,0,0-.085-.678ZM13.59,9.544,12.4,8.627A2.861,2.861,0,0,0,8.9,4.945a1.439,1.439,0,0,1,.281.852,1.408,1.408,0,0,1-.047.3L6.91,4.381a4.3,4.3,0,0,1,2.752-1A4.346,4.346,0,0,1,14.01,7.73a4.245,4.245,0,0,1-.42,1.815Z" transform="translate(0 0)" fill="#8d8d8d"/>
</svg>
