<svg xmlns="http://www.w3.org/2000/svg" width="19.32" height="12.88" viewBox="0 0 19.32 12.88">
  <path id="Icon_awesome-eye" data-name="Icon awesome-eye" d="M19.2,10.45A10.758,10.758,0,0,0,9.66,4.5,10.76,10.76,0,0,0,.117,10.451a1.085,1.085,0,0,0,0,.979A10.758,10.758,0,0,0,9.66,17.38,10.76,10.76,0,0,0,19.2,11.429,1.085,1.085,0,0,0,19.2,10.45ZM9.66,15.77a4.83,4.83,0,1,1,4.83-4.83A4.83,4.83,0,0,1,9.66,15.77Zm0-8.05a3.2,3.2,0,0,0-.849.127,1.6,1.6,0,0,1-2.244,2.244A3.213,3.213,0,1,0,9.66,7.72Z" transform="translate(0 -4.5)" fill="#8d8d8d"/>
</svg>
